<?xml version="1.0" encoding="utf-8"?>
<!-- Generator: Adobe Illustrator 24.3.0, SVG Export Plug-In . SVG Version: 6.00 Build 0)  -->
<svg version="1.1" id="Layer_1" xmlns="http://www.w3.org/2000/svg" xmlns:xlink="http://www.w3.org/1999/xlink" x="0px" y="0px"
	 viewBox="0 0 1920 624" style="enable-background:new 0 0 1920 624;" xml:space="preserve">
<style type="text/css">
	.st0{fill:none;stroke:#3A86FF;stroke-width:12;stroke-miterlimit:10;}
	.st1{fill:#FFFFFF;stroke:#3A86FF;stroke-width:12;stroke-miterlimit:10;}
	.st2{fill:#FFFFFF;stroke:#FA8A1D;stroke-width:12;stroke-miterlimit:10;}
	.st3{fill:#FFFFFF;stroke:#8338EC;stroke-width:12;stroke-miterlimit:10;}
	.st4{fill:#FFFFFF;stroke:#FF006E;stroke-width:12;stroke-miterlimit:10;}
	.st5{fill:#FFFFFF;stroke:#FFBD00;stroke-width:12;stroke-miterlimit:10;}
	.st6{fill:none;}
	.st7{font-family:'OpenSans-Regular';}
	.st8{font-size:31px;}
	.st9{font-size:26px;}
</style>
<polyline class="st0" points="1343.8,272 1344,143 371.8,143.3 129.6,282.2 372.4,430.3 1344,431.3 1344,276.7 1586.9,275.7 "/>
<rect x="1586.9" y="201" class="st1" width="316.1" height="149.4"/>
<rect x="372.4" y="60.1" class="st2" width="316.1" height="149.4"/>
<rect x="1185.7" y="60.7" class="st3" width="316.1" height="149.4"/>
<rect x="371.8" y="349.2" class="st3" width="316.1" height="149.4"/>
<rect x="1182.2" y="349.2" class="st4" width="316.1" height="149.4"/>
<circle class="st5" cx="128.1" cy="275.7" r="116.1"/>
<rect x="390" y="115.3" class="st6" width="283.5" height="90.4"/>
<text transform="matrix(1 0 0 1 447.7847 138.8745)" class="st7 st8">Wireframes</text>
<g>
	<rect x="804" y="94.8" class="st4" width="316.1" height="149.4"/>
	<rect x="781" y="71.9" class="st4" width="316.1" height="149.4"/>
	<rect x="758" y="48.9" class="st4" width="316.1" height="149.4"/>
	<rect x="787" y="125.3" class="st6" width="283.6" height="90.4"/>
</g>
<text transform="matrix(1 0 0 1 793.3447 126.8745)" class="st7 st8">Design Iterations</text>
<rect x="1206" y="115.3" class="st6" width="283.6" height="90.4"/>
<text transform="matrix(1 0 0 1 1236.4707 138.8745)" class="st7 st8">Finished Coded </text>
<text transform="matrix(1 0 0 1 1298.4707 172.4745)" class="st7 st8">Design</text>
<rect x="390" y="402.3" class="st6" width="283.5" height="90.4"/>
<text transform="matrix(1 0 0 1 453.7412 425.8745)" class="st7 st8">Flowcharts</text>
<rect x="7.6" y="268.3" class="st6" width="240.4" height="90.4"/>
<text transform="matrix(1 0 0 1 68.0859 291.874)" class="st7 st8">Concept</text>
<g>
	<rect x="804" y="383.4" class="st2" width="316.1" height="149.4"/>
	<rect x="781" y="360.4" class="st2" width="316.1" height="149.4"/>
	<rect x="758" y="337.4" class="st2" width="316.1" height="149.4"/>
	<rect x="787" y="412.3" class="st6" width="283.6" height="90.4"/>
</g>
<text transform="matrix(1 0 0 1 844.4541 413.8745)" class="st7 st8">Prototype </text>
<text transform="matrix(1 0 0 1 846.6841 447.4745)" class="st7 st8">Iterations</text>
<text transform="matrix(1 0 0 1 181.0229 596.5386)" class="st7 st9">Example project development structure showing parallel paths of design and code development from concept to finished project.</text>
<rect x="1206" y="402.3" class="st6" width="283.6" height="90.4"/>
<text transform="matrix(1 0 0 1 1211.9717 425.8745)" class="st7 st8">Finished Prototype</text>
<rect x="1603" y="257.3" class="st6" width="283.6" height="90.4"/>
<text transform="matrix(1 0 0 1 1629.8149 280.8745)" class="st7 st8">Finished Project</text>
</svg>
