<svg width="537" height="537" viewBox="0 0 537 537" fill="none" xmlns="http://www.w3.org/2000/svg">
<g id="DrDuckCircIcon">
<circle id="Ellipse 31" cx="268.299" cy="268.822" r="267.839" fill="#FFC4B1"/>
<g id="DrDuck">
<g id="body">
<path id="body_2" d="M216.338 332.44C239.432 292.44 297.167 292.44 320.261 332.44L353.747 390.44C376.841 430.44 347.974 480.44 301.786 480.44H234.813C188.625 480.44 159.758 430.44 182.852 390.44L216.338 332.44Z" fill="white"/>
</g>
<g id="headShadow">
<path id="headShadow_2" fill-rule="evenodd" clip-rule="evenodd" d="M206.257 343.476L259.433 251.374C263.282 244.707 272.904 244.707 276.753 251.374L330.342 344.192C313.978 367.365 292.313 381.47 268.55 381.47C244.545 381.47 222.678 367.074 206.257 343.476Z" fill="#F3F3F3"/>
</g>
<g id="rightshad">
<path id="rightshad_2" fill-rule="evenodd" clip-rule="evenodd" d="M360.907 430.052C363.086 417.124 361.049 403.231 353.642 390.366L331.571 352.027C327.184 359.928 324.667 369.144 324.667 378.986C324.667 403.271 339.991 423.745 360.907 430.052Z" fill="#DFDFDF"/>
</g>
<g id="leftshad">
<path id="leftshad_2" fill-rule="evenodd" clip-rule="evenodd" d="M175.633 430.052C173.454 417.124 175.491 403.231 182.898 390.366L204.969 352.027C209.356 359.928 211.873 369.144 211.873 378.986C211.873 403.271 196.549 423.745 175.633 430.052Z" fill="#DFDFDF"/>
</g>
<g id="leftwing">
<path id="leftwing_2" fill-rule="evenodd" clip-rule="evenodd" d="M174.944 424.219C174.179 413.009 176.594 401.315 182.898 390.366L205.405 351.271C209.522 358.544 211.873 366.955 211.873 375.917C211.873 399.047 196.212 418.509 174.944 424.219Z" fill="white"/>
</g>
<g id="rightwing">
<path id="rightwing_2" fill-rule="evenodd" clip-rule="evenodd" d="M361.929 424.703C362.693 413.493 360.278 401.799 353.975 390.85L331.468 351.754C327.351 359.028 325 367.439 325 376.4C325 399.531 340.661 418.992 361.929 424.703Z" fill="white"/>
</g>
<g id="Stethescope">
<path id="Stethescope_2" fill-rule="evenodd" clip-rule="evenodd" d="M310.952 368.796C322.637 370.567 331.592 380.655 331.592 392.834V402.377C334.473 403.559 336.501 406.392 336.501 409.698C336.501 414.066 332.96 417.607 328.592 417.607C324.224 417.607 320.683 414.066 320.683 409.698C320.683 406.392 322.712 403.559 325.592 402.377V392.834C325.592 382.72 317.393 374.52 307.278 374.52C297.163 374.52 288.964 382.72 288.964 392.834V402.377C291.844 403.559 293.873 406.392 293.873 409.698C293.873 414.066 290.332 417.607 285.964 417.607C281.596 417.607 278.055 414.066 278.055 409.698C278.055 406.392 280.083 403.559 282.964 402.377V392.834C282.964 380.19 292.615 369.801 304.952 368.63V350.676H310.952V368.796ZM208.529 402.675C208.529 395.455 213.652 389.432 220.462 388.043V352.819H226.462V388.043C233.271 389.432 238.394 395.455 238.394 402.675C238.394 410.922 231.709 417.607 223.462 417.607C215.215 417.607 208.529 410.922 208.529 402.675ZM223.462 411.607C228.395 411.607 232.394 407.608 232.394 402.675C232.394 397.741 228.395 393.742 223.462 393.742C218.528 393.742 214.529 397.741 214.529 402.675C214.529 407.608 218.528 411.607 223.462 411.607Z" fill="#252525"/>
</g>
<g id="Head">
<circle id="Head_2" cx="267.957" cy="229.25" r="131.906" fill="white"/>
</g>
<g id="lefteye">
<circle id="lefteye_2" cx="203.996" cy="229.25" r="13.1906" fill="black"/>
</g>
<g id="righteye">
<circle id="righteye_2" cx="332.603" cy="229.25" r="13.1906" fill="black"/>
</g>
<g id="lower beak">
<path id="lower beak_2" d="M228.728 255.631C228.728 248.346 234.633 242.44 241.918 242.44H294.681C301.966 242.44 307.871 248.346 307.871 255.631V255.631C307.871 262.916 301.966 268.822 294.681 268.822H241.918C234.633 268.822 228.728 262.916 228.728 255.631V255.631Z" fill="#FFB800"/>
</g>
<g id="beak">
<path id="beak_2" d="M228.385 255.631C228.385 248.346 234.291 242.44 241.576 242.44H294.338C301.623 242.44 307.529 248.346 307.529 255.631V255.631C307.529 262.916 301.623 268.822 294.338 268.822H241.576C234.291 268.822 228.385 262.916 228.385 255.631V255.631Z" fill="#FFB800"/>
</g>
<g id="leftglass">
<circle id="leftglass_2" cx="231.358" cy="242.44" r="15.8582" stroke="black"/>
</g>
<g id="rightglass">
<circle id="rightglass_2" cx="305.358" cy="242.44" r="15.8582" stroke="black"/>
</g>
</g>
</g>
</svg>
