<svg width="276" height="384" viewBox="0 0 276 384" fill="none" xmlns="http://www.w3.org/2000/svg">
<g id="DrDuck">
<g id="body">
<path id="body_2" d="M86.338 235.686C109.432 195.686 167.167 195.686 190.261 235.686L223.747 293.686C246.841 333.686 217.974 383.686 171.786 383.686H104.813C58.6252 383.686 29.7576 333.686 52.8517 293.686L86.338 235.686Z" fill="white"/>
</g>
<g id="headShadow">
<path id="headShadow_2" fill-rule="evenodd" clip-rule="evenodd" d="M76.2573 246.722L129.433 154.62C133.282 147.953 142.904 147.953 146.753 154.62L200.342 247.438C183.978 270.611 162.313 284.716 138.55 284.716C114.545 284.716 92.6784 270.32 76.2573 246.722Z" fill="#F3F3F3"/>
</g>
<g id="rightshad">
<path id="rightshad_2" fill-rule="evenodd" clip-rule="evenodd" d="M230.907 333.298C233.086 320.369 231.049 306.477 223.642 293.612L201.571 255.273C197.184 263.174 194.667 272.39 194.667 282.232C194.667 306.516 209.991 326.991 230.907 333.298Z" fill="#DFDFDF"/>
</g>
<g id="leftshad">
<path id="leftshad_2" fill-rule="evenodd" clip-rule="evenodd" d="M45.6327 333.298C43.4535 320.369 45.4913 306.477 52.8976 293.612L74.9694 255.273C79.3556 263.174 81.8726 272.39 81.8726 282.232C81.8726 306.516 66.549 326.991 45.6327 333.298Z" fill="#DFDFDF"/>
</g>
<g id="leftwing">
<path id="leftwing_2" fill-rule="evenodd" clip-rule="evenodd" d="M44.9436 327.465C44.1794 316.255 46.5941 304.561 52.8976 293.612L75.4048 254.516C79.5218 261.79 81.8726 270.201 81.8726 279.162C81.8726 302.293 66.2115 321.754 44.9436 327.465Z" fill="white"/>
</g>
<g id="rightwing">
<path id="rightwing_2" fill-rule="evenodd" clip-rule="evenodd" d="M231.929 327.949C232.693 316.738 230.278 305.045 223.975 294.095L201.468 255C197.351 262.274 195 270.685 195 279.646C195 302.776 210.661 322.238 231.929 327.949Z" fill="white"/>
</g>
<g id="Stethescope">
<path id="Stethescope_2" fill-rule="evenodd" clip-rule="evenodd" d="M180.952 272.042C192.637 273.813 201.592 283.901 201.592 296.08V305.623C204.473 306.805 206.501 309.637 206.501 312.944C206.501 317.312 202.96 320.853 198.592 320.853C194.224 320.853 190.683 317.312 190.683 312.944C190.683 309.637 192.712 306.805 195.592 305.623V296.08C195.592 285.965 187.393 277.766 177.278 277.766C167.163 277.766 158.964 285.965 158.964 296.08V305.623C161.844 306.805 163.873 309.637 163.873 312.944C163.873 317.312 160.332 320.853 155.964 320.853C151.596 320.853 148.055 317.312 148.055 312.944C148.055 309.637 150.083 306.805 152.964 305.623V296.08C152.964 283.436 162.615 273.046 174.952 271.876V253.922H180.952V272.042ZM78.529 305.92C78.529 298.701 83.6524 292.678 90.4617 291.289V256.065H96.4617V291.289C103.271 292.678 108.394 298.701 108.394 305.92C108.394 314.167 101.709 320.853 93.4617 320.853C85.2146 320.853 78.529 314.167 78.529 305.92ZM93.4617 314.853C98.3951 314.853 102.394 310.854 102.394 305.92C102.394 300.987 98.3951 296.988 93.4617 296.988C88.5283 296.988 84.529 300.987 84.529 305.92C84.529 310.854 88.5283 314.853 93.4617 314.853Z" fill="#252525"/>
</g>
<g id="Head">
<circle id="Head_2" cx="137.957" cy="132.495" r="131.906" fill="white"/>
</g>
<g id="lefteye">
<circle id="lefteye_2" cx="73.996" cy="132.496" r="13.1906" fill="black"/>
</g>
<g id="righteye">
<circle id="righteye_2" cx="202.603" cy="132.496" r="13.1906" fill="black"/>
</g>
<g id="lower beak">
<path id="lower beak_2" d="M98.7278 158.877C98.7278 151.592 104.633 145.686 111.918 145.686H164.681C171.966 145.686 177.871 151.592 177.871 158.877C177.871 166.162 171.966 172.067 164.681 172.067H111.918C104.633 172.067 98.7278 166.162 98.7278 158.877Z" fill="#FFB800"/>
</g>
<g id="beak">
<path id="beak_2" d="M98.3854 158.877C98.3854 151.592 104.291 145.686 111.576 145.686H164.338C171.623 145.686 177.529 151.592 177.529 158.877C177.529 166.162 171.623 172.067 164.338 172.067H111.576C104.291 172.067 98.3854 166.162 98.3854 158.877Z" fill="#FFB800"/>
</g>
<g id="leftglass">
<circle id="leftglass_2" cx="101.358" cy="145.686" r="15.8582" stroke="black"/>
</g>
<g id="rightglass">
<circle id="rightglass_2" cx="175.358" cy="145.686" r="15.8582" stroke="black"/>
</g>
</g>
</svg>
